{"title":"Fan (2016) x264 WebRip AAC ESub -DDR","uid":14690920,"size":1079565801,"categoryP":"video","categoryS":"movies","magnet":"?xt=urn:btih:e9b3cac36d64cc3f97f05701e62fd7bb1b5846c7&amp;dn=Fan+%282016%29+x264+WebRip+AAC+ESub+-DDR&amp;tr=udp%3A%2F%2Ftracker.leechers-paradise.org%3A6969&amp;tr=udp%3A%2F%2Fzer0day.ch%3A1337&amp;tr=udp%3A%2F%2Fopen.demonii.com%3A1337&amp;tr=udp%3A%2F%2Ftracker.coppersurfer.tk%3A6969&amp;tr=udp%3A%2F%2Fexodus.desync.com%3A6969","seeders":1,"leechers":0,"uploader":"SaM","files":3,"time":1464198800,"description":"\n- BollywooD MoviE -\r\n**- FAN -**\r\n- (2016) -\r\n** Webrip / x264 / AAC Stereo **\r\nEnglis subtitle(s)\r\n \nhttp://extraimago.com/image/azGg \nhttp://extraimago.com/image/azGX \nhttp://extraimago.com/image/azGP \nhttp://extraimago.com/image/azGG \nhttp://extraimago.com/image/azGr \nhttp://extraimago.com/image/azGp \nhttp://extraimago.com/image/azGY \nhttp://extraimago.com/image/azGC \nhttp://extraimago.com/image/azGB \nhttp://extraimago.com/image/azG4 \nhttp://extraimago.com/image/azGe \nhttp://extraimago.com/image/azGZ \nhttp://extraimago.com/image/azGK\r\n\r\n[ Specs ]\r\nGeneral\r\nSource = WEBHD @ DDR\r\nFormat : Matroska\r\nFile size : 1 020 MiB\r\nDuration : 2h 18mn\r\nOverall bit rate : 1 030 Kbps\r\n\r\nFormat : AVC\r\nFormat/Info : Advanced Video Codec\r\nFormat profile :   \r\nFormat settings, CABAC : Yes\r\nFormat settings, ReFrames : 5 frames\r\nCodec ID : V_MPEG4/ISO/AVC\r\nDuration : 2h 18mn\r\nBit rate : 900 Kbps\r\nWidth : 720 pixels\r\nHeight : 304 pixels\r\nDisplay aspect ratio : 2.35:1\r\nFrame rate mode : Constant\r\nFrame rate : 23.976 (24000/1001) fps\r\ncolor space : YUV\r\nChroma subsampling : 4:2:0\r\nBit depth : 8 bits\r\nScan type : Progressive\r\nBits/(Pixel*Frame) : 0.171\r\nStream size : 891 MiB (87%)\r\nWriting library : x264 core 148 r2692 64f4e24\r\nDefault : Yes\r\nForced : No\r\n\r\nAudio\r\nID : 2\r\nFormat : AAC\r\nFormat/Info : Advanced Audio Codec\r\nFormat profile : LC\r\nCodec ID : A_AAC\r\nDuration : 2h 18mn\r\nBit rate : 128 Kbps\r\nChannel(s) : 2 channels\r\nChannel positions : Front: L R\r\nSampling rate : 44.1 KHz\r\nFrame rate : 43.066 fps (1024 spf)\r\nCompression mode : Lossy\r\nStream size : 127 MiB (12%)\r\nLanguage : Hindi\r\nDefault : Yes\r\nForced : No\r\n\r\nChapters: NO\r\nSample: YES - included\r\n\r\nA DDR Exclusive Release...!","torrent":{"xt":"urn:btih:e9b3cac36d64cc3f97f05701e62fd7bb1b5846c7","amp;dn":"Fan+%282016%29+x264+WebRip+AAC+ESub+-DDR","amp;tr":["udp%3A%2F%2Ftracker.leechers-paradise.org%3A6969","udp%3A%2F%2Fzer0day.ch%3A1337","udp%3A%2F%2Fopen.demonii.com%3A1337","udp%3A%2F%2Ftracker.coppersurfer.tk%3A6969","udp%3A%2F%2Fexodus.desync.com%3A6969"],"infoHash":"e9b3cac36d64cc3f97f05701e62fd7bb1b5846c7","infoHashBuffer":{"type":"Buffer","data":[233,179,202,195,109,100,204,63,151,240,87,1,230,47,215,187,27,88,70,199]},"announce":[],"urlList":[]}}